<svg xmlns="http://www.w3.org/2000/svg" width="48" height="48" viewBox="0 0 48 48">
    <g fill="none" fill-rule="evenodd">
        <g>
            <g>
                <path stroke="#979797" stroke-opacity="0" d="M0.5 0.5H47.5V47.5H0.5z" transform="translate(-114 -207) translate(114 207)"/>
                <g>
                    <path stroke="#16212A" d="M21.21 24.12l.79-.062c.305-.024.533-.29.509-.595l-.069-.872c-.024-.305-.29-.533-.595-.509l-.788.062c-.228-.636-.61-1.172-1.09-1.583l.341-.715c.132-.276.015-.606-.26-.738l-.79-.377c-.276-.131-.606-.015-.738.261l-.34.715c-.622-.113-1.28-.074-1.918.15l-.447-.652c-.174-.252-.518-.316-.77-.143l-.72.496c-.253.173-.316.517-.143.769l.449.654c-.42.496-.706 1.094-.827 1.733l-.791.062c-.305.024-.532.29-.508.595l.068.873c.024.304.29.531.595.507l.788-.061c.228.636.611 1.172 1.09 1.583l-.341.715c-.132.276-.015.606.26.737l.791.377c.275.132.605.015.737-.26l.342-.715c.62.113 1.278.074 1.916-.15l.447.652c.173.252.518.316.77.143l.721-.496c.252-.173.316-.517.143-.77l-.45-.652c.42-.497.706-1.095.828-1.734z" transform="translate(-114 -207) translate(114 207) translate(6 9)"/>
                    <path stroke="#16212A" d="M24.575 23.417c0-3.904-3.164-7.069-7.068-7.069-3.904 0-7.069 3.165-7.069 7.069s3.165 7.069 7.069 7.069 7.068-3.165 7.068-7.07z" transform="translate(-114 -207) translate(114 207) translate(6 9)"/>
                    <path stroke="#16212A" stroke-linecap="round" d="M2.69 15.225L9.315 8.6M1.41 13.945L8.034 7.32M.13 12.664L6.754 6.04M32.324 15.225L25.699 8.6M33.604 13.945L26.979 7.32M34.884 12.664L28.259 6.04" transform="translate(-114 -207) translate(114 207) translate(6 9)"/>
                    <path stroke="#16212A" d="M31.571 9.352L34.63 6.294 28.466.13 17.507.13 6.548.13.383 6.294 3.442 9.352M15.774 16.563l-4.959-4.958c-.402-.403-1.054-.403-1.457 0l-3.663 3.663c-.403.403-.403 1.055 0 1.458l4.958 4.958c.633-2.512 2.61-4.488 5.12-5.121zM24.36 21.684l4.959-4.958c.402-.403.402-1.055 0-1.458l-3.664-3.663c-.402-.403-1.055-.403-1.457 0l-4.959 4.958c2.512.633 4.489 2.61 5.122 5.121z" transform="translate(-114 -207) translate(114 207) translate(6 9)"/>
                    <path stroke="#16212A" stroke-linecap="round" d="M20.241 5.432c0-1.51-1.224-2.734-2.734-2.734s-2.735 1.224-2.735 2.734 1.225 2.734 2.735 2.734c1.51 0 2.734-1.224 2.734-2.734zM20.241 4.978L21.084 11.813M14.772 4.978L13.929 11.813" transform="translate(-114 -207) translate(114 207) translate(6 9)"/>
                    <path fill="#EF0C1B" d="M18.508 5.432c0-.553-.448-1.002-1.001-1.002-.553 0-1.002.449-1.002 1.002 0 .553.449 1.002 1.002 1.002.553 0 1.001-.449 1.001-1.002" transform="translate(-114 -207) translate(114 207) translate(6 9)"/>
                </g>
            </g>
        </g>
    </g>
</svg>
