<svg xmlns="http://www.w3.org/2000/svg" width="50" height="50" viewBox="0 0 50 50">
    <g fill="none" fill-rule="evenodd">
        <g>
            <g>
                <g stroke-linecap="round">
                    <path stroke="#16212A" d="M5.911 6.78H.965c-.48 0-.868-.39-.868-.869V.965c0-.479.389-.867.868-.867h4.946c.48 0 .868.388.868.867v4.946c0 .48-.389.868-.868.868zM5.911 26.208H.965c-.48 0-.868-.388-.868-.868v-4.945c0-.48.389-.868.868-.868h4.946c.48 0 .868.388.868.868v4.945c0 .48-.389.868-.868.868zM17.398 6.78h-4.946c-.48 0-.868-.39-.868-.869V.965c0-.479.389-.867.868-.867h4.946c.479 0 .868.388.868.867v4.946c0 .48-.389.868-.868.868zM17.398 26.208h-4.946c-.48 0-.868-.388-.868-.868v-4.945c0-.48.389-.868.868-.868h4.946c.479 0 .868.388.868.868v4.945c0 .48-.389.868-.868.868zM28.885 26.208h-4.946c-.48 0-.868-.389-.868-.868v-4.945c0-.48.389-.868.868-.868h4.946c.48 0 .868.388.868.868v4.945c0 .48-.389.868-.868.868zM3.438 12.845L26.412 12.845 26.412 19.527M3.438 6.779L3.438 19.527M14.925 6.779L14.925 19.527" transform="translate(-273 -206) translate(274 207) translate(9 11)"/>
                    <path stroke="#CC0C1B" d="M3.438 2.875L3.438 4.001M3.438 22.305L3.438 23.431M14.925 2.875L14.925 4.001M14.925 22.305L14.925 23.431M26.412 22.305L26.412 23.431" transform="translate(-273 -206) translate(274 207) translate(9 11)"/>
                </g>
                <path stroke="#FFF" stroke-opacity="0" d="M0 48L48 48 48 0 0 0z" transform="translate(-273 -206) translate(274 207)"/>
            </g>
        </g>
    </g>
</svg>
