<svg xmlns="http://www.w3.org/2000/svg" width="48" height="48" viewBox="0 0 48 48">
    <g fill="none" fill-rule="evenodd">
        <g>
            <g>
                <g>
                    <path stroke="#979797" stroke-opacity="0" d="M0.5 0.5H47.5V47.5H0.5z" transform="translate(-594 -269) translate(114 269) translate(480)"/>
                    <g>
                        <path stroke="#16212A" d="M22.62 19.655c0-1.3 1.054-2.356 2.355-2.356s2.356 1.055 2.356 2.356-1.055 2.356-2.356 2.356c-1.3 0-2.355-1.055-2.355-2.356zM4.19 19.655c0-1.3 1.054-2.356 2.355-2.356s2.356 1.055 2.356 2.356-1.055 2.356-2.356 2.356c-1.3 0-2.355-1.055-2.355-2.356z" transform="translate(-594 -269) translate(114 269) translate(480) translate(9 13)"/>
                        <path stroke="#16212A" d="M27.266 20.196h2.2c.205 0 .372-.168.37-.373l-.018-1.64c0-.252-.106-.42-.255-.517l-.646-.424-.004-.87c.024-.224-.097-.439-.303-.533-.697-.316-2.393-.91-5.505-1.088-1.136-.066-2.248-.35-3.265-.859l-2.54-1.27c-1.003-.501-2.108-.762-3.229-.762h-3.25c-2.1 0-4.184.508-6.001 1.562-.993.577-2.293 1.074-3.75.993-.185-.01-.336.137-.336.321v1.143s-.617.79-.617 1.924c0 0 .01 2.393 1.87 2.393h2.267M9.003 20.196L22.481 20.196" transform="translate(-594 -269) translate(114 269) translate(480) translate(9 13)"/>
                        <path stroke="#16212A" d="M12.566 11.86v3.594h5.059c1.08 0 2.118-.43 2.882-1.194l.022-.021M12.566 15.454h-1.777c-1.873 0-3.572-1.099-4.34-2.807" transform="translate(-594 -269) translate(114 269) translate(480) translate(9 13)"/>
                        <path stroke="#16212A" stroke-linecap="round" d="M0.734 15.879L3.044 15.879" transform="translate(-594 -269) translate(114 269) translate(480) translate(9 13)"/>
                        <path stroke="#16212A" d="M27.384 8.376L22.35 7.793 22.35 0.743 27.384 0.16z" transform="translate(-594 -269) translate(114 269) translate(480) translate(9 13)"/>
                        <path stroke="#16212A" d="M22.35.743h-1.948c-1.1 0-1.992.892-1.992 1.992v3.06c0 1.1.891 1.992 1.992 1.992h1.949M18.41 3.087h-7.766c-1.795 0-3.54-.75-5.188-1.465-.434-.188-.925-.272-1.44-.22-1.327.135-2.413 1.208-2.56 2.535-.192 1.736 1.163 3.206 2.86 3.206.451 0 .877-.104 1.257-.289 1.637-.8 3.468-1.411 5.29-1.411h7.547V3.087z" transform="translate(-594 -269) translate(114 269) translate(480) translate(9 13)"/>
                        <path stroke="#16212A" d="M5.343 4.265c0-.567-.46-1.026-1.027-1.026s-1.026.46-1.026 1.026c0 .567.46 1.026 1.026 1.026.567 0 1.027-.46 1.027-1.026z" transform="translate(-594 -269) translate(114 269) translate(480) translate(9 13)"/>
                        <path fill="#EF0C1B" d="M5.674 19.655c0-.481.39-.871.871-.871s.871.39.871.871-.39.871-.87.871c-.482 0-.872-.39-.872-.87M24.104 19.655c0-.481.39-.871.871-.871s.872.39.872.871-.39.871-.872.871c-.48 0-.87-.39-.87-.87M25.978 6.838v-5.1l-2.221.258v2.101c.582.487 1.557 1.43 2.221 2.741" transform="translate(-594 -269) translate(114 269) translate(480) translate(9 13)"/>
                    </g>
                </g>
            </g>
        </g>
    </g>
</svg>
