<svg xmlns="http://www.w3.org/2000/svg" width="48" height="48" viewBox="0 0 48 48">
    <g fill="none" fill-rule="evenodd">
        <g>
            <g>
                <g>
                    <path fill="#D8D8D8" fill-opacity="0" d="M0 0H48V48H0z" transform="translate(-434 -269) translate(114 269) translate(320)"/>
                    <g stroke-linecap="round">
                        <path stroke="#16212A" d="M17.567 28.999V20.94c1.247-.399 2.287-1.255 2.928-2.371l7.843 1.814c-1.64 4.599-5.772 8.012-10.77 8.616zM3.62 20.383l7.842-1.814c.642 1.116 1.681 1.972 2.928 2.371V29c-4.999-.604-9.131-4.017-10.77-8.616zm12.36-17.524c7.245 0 13.119 5.873 13.119 13.119 0 .44-.023.875-.065 1.304l-7.87-1.82c-.26-2.636-2.481-4.695-5.185-4.695-2.703 0-4.925 2.059-5.184 4.694l-7.87 1.82c-.043-.428-.065-.863-.065-1.303 0-7.246 5.874-13.12 13.12-13.12zm0-2.772C7.201.087.086 7.202.086 15.978c0 8.777 7.115 15.891 15.891 15.891 8.777 0 15.892-7.114 15.892-15.891C31.87 7.202 24.755.087 15.978.087z" transform="translate(-434 -269) translate(114 269) translate(320) translate(8 8)"/>
                        <path fill="#CC0C1B" stroke="#CC0C1B" d="M18.085 15.978c0-1.163-.943-2.106-2.107-2.106-1.163 0-2.106.943-2.106 2.106 0 1.164.943 2.107 2.106 2.107 1.164 0 2.107-.943 2.107-2.107z" transform="translate(-434 -269) translate(114 269) translate(320) translate(8 8)"/>
                        <path stroke="#16212A" d="M23.631 8.326c-1.958-1.959-4.664-3.17-7.653-3.17-2.988 0-5.694 1.211-7.652 3.17" transform="translate(-434 -269) translate(114 269) translate(320) translate(8 8)"/>
                    </g>
                </g>
            </g>
        </g>
    </g>
</svg>
